<svg id="wave" style="transform:rotate(0deg); transition: 0.3s" viewBox="0 0 1440 490" version="1.1" xmlns="http://www.w3.org/2000/svg"><defs><linearGradient id="sw-gradient-0" x1="0" x2="0" y1="1" y2="0"><stop stop-color="rgba(243, 106, 62, 1)" offset="0%"></stop><stop stop-color="rgba(255, 179, 11, 1)" offset="100%"></stop></linearGradient></defs><path style="transform:translate(0, 0px); opacity:1" fill="url(#sw-gradient-0)" d="M0,392L18.5,367.5C36.9,343,74,294,111,294C147.7,294,185,343,222,359.3C258.5,376,295,359,332,359.3C369.2,359,406,376,443,343C480,310,517,229,554,212.3C590.8,196,628,245,665,236.8C701.5,229,738,163,775,187.8C812.3,212,849,327,886,318.5C923.1,310,960,180,997,106.2C1033.8,33,1071,16,1108,57.2C1144.6,98,1182,196,1218,228.7C1255.4,261,1292,229,1329,196C1366.2,163,1403,131,1440,138.8C1476.9,147,1514,196,1551,228.7C1587.7,261,1625,278,1662,310.3C1698.5,343,1735,392,1772,392C1809.2,392,1846,343,1883,294C1920,245,1957,196,1994,212.3C2030.8,229,2068,310,2105,351.2C2141.5,392,2178,392,2215,326.7C2252.3,261,2289,131,2326,81.7C2363.1,33,2400,65,2437,130.7C2473.8,196,2511,294,2548,285.8C2584.6,278,2622,163,2640,106.2L2658.5,49L2658.5,490L2640,490C2621.5,490,2585,490,2548,490C2510.8,490,2474,490,2437,490C2400,490,2363,490,2326,490C2289.2,490,2252,490,2215,490C2178.5,490,2142,490,2105,490C2067.7,490,2031,490,1994,490C1956.9,490,1920,490,1883,490C1846.2,490,1809,490,1772,490C1735.4,490,1698,490,1662,490C1624.6,490,1588,490,1551,490C1513.8,490,1477,490,1440,490C1403.1,490,1366,490,1329,490C1292.3,490,1255,490,1218,490C1181.5,490,1145,490,1108,490C1070.8,490,1034,490,997,490C960,490,923,490,886,490C849.2,490,812,490,775,490C738.5,490,702,490,665,490C627.7,490,591,490,554,490C516.9,490,480,490,443,490C406.2,490,369,490,332,490C295.4,490,258,490,222,490C184.6,490,148,490,111,490C73.8,490,37,490,18,490L0,490Z"></path></svg>